  0
SECTION
  2
HEADER
  9
$ACADVER
  1
AC1015
  9
$ACADMAINTVER
 70
     6
  9
$DWGCODEPAGE
  3
ANSI_1252
  9
$INSBASE
 10
0.0
 20
0.0
 30
0.0
  9
$EXTMIN
 10
-0.0173633725
 20
1.5638300229
 30
0.0
  9
$EXTMAX
 10
1.141747619
 20
2.3942764594
 30
0.0
  9
$LIMMIN
 10
0.0
 20
0.0
  9
$LIMMAX
 10
420.0
 20
297.0
  9
$ORTHOMODE
 70
     0
  9
$REGENMODE
 70
     1
  9
$FILLMODE
 70
     1
  9
$QTEXTMODE
 70
     0
  9
$MIRRTEXT
 70
     1
  9
$LTSCALE
 40
1.0
  9
$ATTMODE
 70
     1
  9
$TEXTSIZE
 40
0.0035
  9
$TRACEWID
 40
1.0
  9
$TEXTSTYLE
  7
Standard
  9
$CLAYER
  8
0
  9
$CELTYPE
  6
ByLayer
  9
$CECOLOR
 62
   256
  9
$CELTSCALE
 40
1.0
  9
$DISPSILH
 70
     0
  9
$DIMSCALE
 40
1.0
  9
$DIMASZ
 40
0.003302
  9
$DIMEXO
 40
0.0
  9
$DIMDLI
 40
3.75
  9
$DIMRND
 40
0.0
  9
$DIMDLE
 40
0.0
  9
$DIMEXE
 40
0.001
  9
$DIMTP
 40
0.0
  9
$DIMTM
 40
0.0
  9
$DIMTXT
 40
0.0035
  9
$DIMCEN
 40
2.5
  9
$DIMTSZ
 40
0.0
  9
$DIMTOL
 70
     0
  9
$DIMLIM
 70
     0
  9
$DIMTIH
 70
     1
  9
$DIMTOH
 70
     1
  9
$DIMSE1
 70
     0
  9
$DIMSE2
 70
     0
  9
$DIMTAD
 70
     1
  9
$DIMZIN
 70
     1
  9
$DIMBLK
  1

  9
$DIMASO
 70
     1
  9
$DIMSHO
 70
     1
  9
$DIMPOST
  1

  9
$DIMAPOST
  1

  9
$DIMALT
 70
     0
  9
$DIMALTD
 70
     3
  9
$DIMALTF
 40
39.3700787402
  9
$DIMLFAC
 40
1.0
  9
$DIMTOFL
 70
     1
  9
$DIMTVP
 40
0.0
  9
$DIMTIX
 70
     0
  9
$DIMSOXD
 70
     0
  9
$DIMSAH
 70
     0
  9
$DIMBLK1
  1

  9
$DIMBLK2
  1

  9
$DIMSTYLE
  2
ISO-25
  9
$DIMCLRD
 70
     0
  9
$DIMCLRE
 70
     0
  9
$DIMCLRT
 70
     0
  9
$DIMTFAC
 40
1.0
  9
$DIMGAP
 40
0.001524
  9
$DIMJUST
 70
     0
  9
$DIMSD1
 70
     0
  9
$DIMSD2
 70
     0
  9
$DIMTOLJ
 70
     0
  9
$DIMTZIN
 70
     1
  9
$DIMALTZ
 70
     0
  9
$DIMALTTZ
 70
     0
  9
$DIMUPT
 70
     0
  9
$DIMDEC
 70
     2
  9
$DIMTDEC
 70
     2
  9
$DIMALTU
 70
     2
  9
$DIMALTTD
 70
     3
  9
$DIMTXSTY
  7
Standard
  9
$DIMAUNIT
 70
     0
  9
$DIMADEC
 70
     2
  9
$DIMALTRND
 40
0.0
  9
$DIMAZIN
 70
     0
  9
$DIMDSEP
 70
    44
  9
$DIMATFIT
 70
     3
  9
$DIMFRAC
 70
     0
  9
$DIMLDRBLK
  1

  9
$DIMLUNIT
 70
     2
  9
$DIMLWD
 70
    -2
  9
$DIMLWE
 70
    -2
  9
$DIMTMOVE
 70
     0
  9
$LUNITS
 70
     2
  9
$LUPREC
 70
     2
  9
$SKETCHINC
 40
1.0
  9
$FILLETRAD
 40
0.0
  9
$AUNITS
 70
     0
  9
$AUPREC
 70
     2
  9
$MENU
  1
.
  9
$ELEVATION
 40
0.0
  9
$PELEVATION
 40
0.0
  9
$THICKNESS
 40
0.0
  9
$LIMCHECK
 70
     0
  9
$CHAMFERA
 40
0.0
  9
$CHAMFERB
 40
0.0
  9
$CHAMFERC
 40
0.0
  9
$CHAMFERD
 40
0.0
  9
$SKPOLY
 70
     0
  9
$TDCREATE
 40
2461019.086515162
  9
$TDUCREATE
 40
2461019.336515162
  9
$TDUPDATE
 40
2461019.086612419
  9
$TDUUPDATE
 40
2461019.336612419
  9
$TDINDWG
 40
0.0000000116
  9
$TDUSRTIMER
 40
0.0000000116
  9
$USRTIMER
 70
     1
  9
$ANGBASE
 50
0.0
  9
$ANGDIR
 70
     0
  9
$PDMODE
 70
     0
  9
$PDSIZE
 40
-1.0
  9
$PLINEWID
 40
0.0
  9
$SPLFRAME
 70
     0
  9
$SPLINETYPE
 70
     6
  9
$SPLINESEGS
 70
     8
  9
$HANDSEED
  5
B0
  9
$SURFTAB1
 70
     6
  9
$SURFTAB2
 70
     6
  9
$SURFTYPE
 70
     6
  9
$SURFU
 70
     6
  9
$SURFV
 70
     6
  9
$UCSBASE
  2

  9
$UCSNAME
  2

  9
$UCSORG
 10
0.0
 20
0.0
 30
0.0
  9
$UCSXDIR
 10
1.0
 20
0.0
 30
0.0
  9
$UCSYDIR
 10
0.0
 20
1.0
 30
0.0
  9
$UCSORTHOREF
  2

  9
$UCSORTHOVIEW
 70
     0
  9
$UCSORGTOP
 10
0.0
 20
0.0
 30
0.0
  9
$UCSORGBOTTOM
 10
0.0
 20
0.0
 30
0.0
  9
$UCSORGLEFT
 10
0.0
 20
0.0
 30
0.0
  9
$UCSORGRIGHT
 10
0.0
 20
0.0
 30
0.0
  9
$UCSORGFRONT
 10
0.0
 20
0.0
 30
0.0
  9
$UCSORGBACK
 10
0.0
 20
0.0
 30
0.0
  9
$PUCSBASE
  2

  9
$PUCSNAME
  2

  9
$PUCSORG
 10
0.0
 20
0.0
 30
0.0
  9
$PUCSXDIR
 10
1.0
 20
0.0
 30
0.0
  9
$PUCSYDIR
 10
0.0
 20
1.0
 30
0.0
  9
$PUCSORTHOREF
  2

  9
$PUCSORTHOVIEW
 70
     0
  9
$PUCSORGTOP
 10
0.0
 20
0.0
 30
0.0
  9
$PUCSORGBOTTOM
 10
0.0
 20
0.0
 30
0.0
  9
$PUCSORGLEFT
 10
0.0
 20
0.0
 30
0.0
  9
$PUCSORGRIGHT
 10
0.0
 20
0.0
 30
0.0
  9
$PUCSORGFRONT
 10
0.0
 20
0.0
 30
0.0
  9
$PUCSORGBACK
 10
0.0
 20
0.0
 30
0.0
  9
$USERI1
 70
     0
  9
$USERI2
 70
     0
  9
$USERI3
 70
     0
  9
$USERI4
 70
     0
  9
$USERI5
 70
     0
  9
$USERR1
 40
0.0
  9
$USERR2
 40
0.0
  9
$USERR3
 40
0.0
  9
$USERR4
 40
0.0
  9
$USERR5
 40
0.0
  9
$WORLDVIEW
 70
     1
  9
$SHADEDGE
 70
     3
  9
$SHADEDIF
 70
    70
  9
$TILEMODE
 70
     1
  9
$MAXACTVP
 70
    64
  9
$PINSBASE
 10
0.0
 20
0.0
 30
0.0
  9
$PLIMCHECK
 70
     0
  9
$PEXTMIN
 10
1.0000000000E+20
 20
1.0000000000E+20
 30
1.0000000000E+20
  9
$PEXTMAX
 10
-1.0000000000E+20
 20
-1.0000000000E+20
 30
-1.0000000000E+20
  9
$PLIMMIN
 10
0.0
 20
0.0
  9
$PLIMMAX
 10
420.0
 20
297.0
  9
$UNITMODE
 70
     0
  9
$VISRETAIN
 70
     1
  9
$PLINEGEN
 70
     0
  9
$PSLTSCALE
 70
     1
  9
$TREEDEPTH
 70
  3020
  9
$CMLSTYLE
  2
Standard
  9
$CMLJUST
 70
     0
  9
$CMLSCALE
 40
20.0
  9
$PROXYGRAPHICS
 70
     1
  9
$MEASUREMENT
 70
     1
  9
$CELWEIGHT
370
    -1
  9
$ENDCAPS
280
     0
  9
$JOINSTYLE
280
     0
  9
$LWDISPLAY
290
     1
  9
$INSUNITS
 70
     6
  9
$HYPERLINKBASE
  1

  9
$STYLESHEET
  1

  9
$XEDIT
290
     1
  9
$CEPSNTYPE
380
     0
  9
$PSTYLEMODE
290
     1
  9
$FINGERPRINTGUID
  2
{288ce6e6-b83a-4dd6-b716-785f16d6eecd}
  9
$VERSIONGUID
  2
{FAEB1C32-E019-11D5-929B-00C0DF256EC4}
  9
$EXTNAMES
290
     1
  9
$PSVPSCALE
 40
0.0
  9
$OLESTARTUP
290
     0
  0
ENDSEC
  0
SECTION
  2
CLASSES
  0
CLASS
  1
ACDBDICTIONARYWDFLT
  2
AcDbDictionaryWithDefault
  3
ObjectDBX Classes
 90
        0
280
     0
281
     0
  0
CLASS
  1
VISUALSTYLE
  2
AcDbVisualStyle
  3
ObjectDBX Classes
 90
     4095
280
     0
281
     0
  0
CLASS
  1
MATERIAL
  2
AcDbMaterial
  3
ObjectDBX Classes
 90
     1153
280
     0
281
     0
  0
CLASS
  1
SCALE
  2
AcDbScale
  3
ObjectDBX Classes
 90
     1153
280
     0
281
     0
  0
CLASS
  1
TABLESTYLE
  2
AcDbTableStyle
  3
ObjectDBX Classes
 90
     4095
280
     0
281
     0
  0
CLASS
  1
MLEADERSTYLE
  2
AcDbMLeaderStyle
  3
ACDB_MLEADERSTYLE_CLASS
 90
     4095
280
     0
281
     0
  0
CLASS
  1
SUN
  2
AcDbSun
  3
SCENEOE
 90
     1153
280
     0
281
     0
  0
CLASS
  1
ACDBPLACEHOLDER
  2
AcDbPlaceHolder
  3
ObjectDBX Classes
 90
        0
280
     0
281
     0
  0
CLASS
  1
LAYOUT
  2
AcDbLayout
  3
ObjectDBX Classes
 90
        0
280
     0
281
     0
  0
ENDSEC
  0
SECTION
  2
TABLES
  0
TABLE
  2
VPORT
  5
8
330
0
100
AcDbSymbolTable
 70
     1
  0
VPORT
  5
29
330
8
100
AcDbSymbolTableRecord
100
AcDbViewportTableRecord
  2
*Active
 70
     0
 10
0.0
 20
0.0
 11
1.0
 21
1.0
 12
0.5621921232
 22
1.9790532412
 13
0.0
 23
0.0
 14
10.0
 24
10.0
 15
10.0
 25
10.0
 16
0.0
 26
0.0
 36
1.0
 17
0.0
 27
0.0
 37
0.0
 40
0.8470553652
 41
1.3957685175
 42
50.0
 43
0.0
 44
0.0
 50
0.0
 51
0.0
 71
     0
 72
   100
 73
     1
 74
     3
 75
     0
 76
     0
 77
     0
 78
     0
281
     0
 65
     1
110
0.0
120
0.0
130
0.0
111
1.0
121
0.0
131
0.0
112
0.0
122
1.0
132
0.0
 79
     0
146
0.0
  0
ENDTAB
  0
TABLE
  2
LTYPE
  5
5
330
0
100
AcDbSymbolTable
 70
     6
  0
LTYPE
  5
14
330
5
100
AcDbSymbolTableRecord
100
AcDbLinetypeTableRecord
  2
ByBlock
 70
     0
  3

 72
    65
 73
     0
 40
0.0
  0
LTYPE
  5
15
330
5
100
AcDbSymbolTableRecord
100
AcDbLinetypeTableRecord
  2
ByLayer
 70
     0
  3

 72
    65
 73
     0
 40
0.0
  0
LTYPE
  5
16
330
5
100
AcDbSymbolTableRecord
100
AcDbLinetypeTableRecord
  2
Continuous
 70
     0
  3
Solid line
 72
    65
 73
     0
 40
0.0
  0
LTYPE
  5
5E
330
5
100
AcDbSymbolTableRecord
100
AcDbLinetypeTableRecord
  2
HIDDEN
 70
     0
  3
Hidden __ __ __ __ __ __ __ __ __ __ __ __ __ __
 72
    65
 73
     2
 40
0.001905
 49
0.00127
 74
     0
 49
-0.000635
 74
     0
  0
LTYPE
  5
5F
330
5
100
AcDbSymbolTableRecord
100
AcDbLinetypeTableRecord
  2
PHANTOM
 70
     0
  3
Phantom ______  __  __  ______  __  __  ______
 72
    65
 73
     6
 40
0.0127
 49
0.00635
 74
     0
 49
-0.00127
 74
     0
 49
0.00127
 74
     0
 49
-0.00127
 74
     0
 49
0.00127
 74
     0
 49
-0.00127
 74
     0
  0
LTYPE
  5
60
330
5
100
AcDbSymbolTableRecord
100
AcDbLinetypeTableRecord
  2
CENTER
 70
     0
  3
Center ____ _ ____ _ ____ _ ____ _ ____ _ ____
 72
    65
 73
     4
 40
0.01016
 49
0.00635
 74
     0
 49
-0.00127
 74
     0
 49
0.00127
 74
     0
 49
-0.00127
 74
     0
  0
LTYPE
  5
61
330
5
100
AcDbSymbolTableRecord
100
AcDbLinetypeTableRecord
  2
CENTERX2
 70
     0
  3
Center (2x) ________  __  ________  __  _____
 72
    65
 73
     4
 40
0.02032
 49
0.0127
 74
     0
 49
-0.00254
 74
     0
 49
0.00254
 74
     0
 49
-0.00254
 74
     0
  0
LTYPE
  5
62
330
5
100
AcDbSymbolTableRecord
100
AcDbLinetypeTableRecord
  2
DOT2
 70
     0
  3
Dot (.5x) ........................................
 72
    65
 73
     2
 40
0.000635
 49
0.0
 74
     0
 49
-0.000635
 74
     0
  0
ENDTAB
  0
TABLE
  2
LAYER
  5
2
330
0
100
AcDbSymbolTable
 70
     1
  0
LAYER
  5
10
330
2
100
AcDbSymbolTableRecord
100
AcDbLayerTableRecord
  2
0
 70
     0
 62
     7
  6
Continuous
370
    -3
390
F
  0
ENDTAB
  0
TABLE
  2
STYLE
  5
3
330
0
100
AcDbSymbolTable
 70
     2
  0
STYLE
  5
11
330
3
100
AcDbSymbolTableRecord
100
AcDbTextStyleTableRecord
  2
Standard
 70
     0
 40
0.0
 41
1.0
 50
0.0
 71
     0
 42
0.0035
  3
txt
  4

  0
STYLE
  5
AC
330
3
100
AcDbSymbolTableRecord
100
AcDbTextStyleTableRecord
  2
SLDTEXTSTYLE0
 70
     0
 40
0.0
 41
0.7
 50
0.0
 71
     0
 42
0.0035
  3
TXT
  4

  0
ENDTAB
  0
TABLE
  2
VIEW
  5
6
330
0
100
AcDbSymbolTable
 70
     0
  0
ENDTAB
  0
TABLE
  2
UCS
  5
7
330
0
100
AcDbSymbolTable
 70
     0
  0
ENDTAB
  0
TABLE
  2
APPID
  5
9
330
0
100
AcDbSymbolTable
 70
     1
  0
APPID
  5
12
330
9
100
AcDbSymbolTableRecord
100
AcDbRegAppTableRecord
  2
ACAD
 70
     0
  0
ENDTAB
  0
TABLE
  2
DIMSTYLE
  5
A
330
0
100
AcDbSymbolTable
 70
     1
100
AcDbDimStyleTable
  0
DIMSTYLE
105
27
330
A
100
AcDbSymbolTableRecord
100
AcDbDimStyleTableRecord
  2
ISO-25
 70
     0
 41
2.5
 42
0.625
 43
3.75
 44
1.25
 73
     0
 74
     0
 77
     1
 78
     8
140
2.5
141
2.5
143
0.0393700787
147
0.625
171
     3
172
     1
178
     0
271
     2
272
     2
274
     3
278
    44
283
     0
284
     8
340
11
  0
ENDTAB
  0
TABLE
  2
BLOCK_RECORD
  5
1
330
0
100
AcDbSymbolTable
 70
     1
  0
BLOCK_RECORD
  5
1F
330
1
100
AcDbSymbolTableRecord
100
AcDbBlockTableRecord
  2
*Model_Space
340
22
  0
BLOCK_RECORD
  5
1B
330
1
100
AcDbSymbolTableRecord
100
AcDbBlockTableRecord
  2
*Paper_Space
340
1E
  0
BLOCK_RECORD
  5
23
330
1
100
AcDbSymbolTableRecord
100
AcDbBlockTableRecord
  2
*Paper_Space0
340
26
  0
ENDTAB
  0
ENDSEC
  0
SECTION
  2
BLOCKS
  0
BLOCK
  5
20
330
1F
100
AcDbEntity
  8
0
100
AcDbBlockBegin
  2
*Model_Space
 70
     0
 10
0.0
 20
0.0
 30
0.0
  3
*Model_Space
  1

  0
ENDBLK
  5
21
330
1F
100
AcDbEntity
  8
0
100
AcDbBlockEnd
  0
BLOCK
  5
1C
330
1B
100
AcDbEntity
 67
     1
  8
0
100
AcDbBlockBegin
  2
*Paper_Space
 70
     0
 10
0.0
 20
0.0
 30
0.0
  3
*Paper_Space
  1

  0
ENDBLK
  5
1D
330
1B
100
AcDbEntity
 67
     1
  8
0
100
AcDbBlockEnd
  0
BLOCK
  5
24
330
23
100
AcDbEntity
  8
0
100
AcDbBlockBegin
  2
*Paper_Space0
 70
     0
 10
0.0
 20
0.0
 30
0.0
  3
*Paper_Space0
  1

  0
ENDBLK
  5
25
330
23
100
AcDbEntity
  8
0
100
AcDbBlockEnd
  0
ENDSEC
  0
SECTION
  2
ENTITIES
  0
LWPOLYLINE
  5
63
330
1F
100
AcDbEntity
  8
0
  6
Continuous
 62
     7
100
AcDbPolyline
 90
        9
 70
   128
 43
0.0
 10
-0.0093027863
 20
2.1278814157
 10
-0.009231014
 20
2.1240271565
 10
-0.0090158037
 20
2.1201786249
 10
-0.0086574752
 20
2.1163415404
 10
-0.008156561
 20
2.1125216051
 10
-0.0075138056
 20
2.1087244958
 10
-0.0067301641
 20
2.1049558552
 10
-0.0058068011
 20
2.1012212839
 10
-0.0047450888
 20
2.0975263319
  0
LWPOLYLINE
  5
64
330
1F
100
AcDbEntity
  8
0
  6
Continuous
 62
     7
100
AcDbPolyline
 90
        9
 70
   128
 43
0.0
 10
0.2255388011
 20
1.8442764594
 10
0.2238573963
 20
1.8443143536
 10
0.2221791774
 20
1.8444279644
 10
0.2205073239
 20
1.8446170766
 10
0.2188450037
 20
1.8448813318
 10
0.2171953662
 20
1.8452202293
 10
0.2155615371
 20
1.845633127
 10
0.2139466121
 20
1.8461192427
 10
0.2123536509
 20
1.8466776552
  0
LWPOLYLINE
  5
65
330
1F
100
AcDbEntity
  8
0
  6
Continuous
 62
     7
100
AcDbPolyline
 90
        9
 70
   128
 43
0.0
 10
0.2871148308
 20
1.8442764594
 10
0.2887962355
 20
1.8443143536
 10
0.2904744545
 20
1.8444279644
 10
0.2921463079
 20
1.8446170766
 10
0.2938086282
 20
1.8448813318
 10
0.2954582656
 20
1.8452202293
 10
0.2970920947
 20
1.845633127
 10
0.2987070197
 20
1.8461192427
 10
0.3002999809
 20
1.8466776552
  0
LWPOLYLINE
  5
66
330
1F
100
AcDbEntity
  8
0
  6
Continuous
 62
     7
100
AcDbPolyline
 90
        9
 70
   128
 43
0.0
 10
0.5219564181
 20
2.1278814157
 10
0.5218846458
 20
2.1240271565
 10
0.5216694355
 20
2.1201786249
 10
0.521311107
 20
2.1163415404
 10
0.5208101929
 20
2.1125216051
 10
0.5201674375
 20
2.1087244958
 10
0.519383796
 20
2.1049558552
 10
0.518460433
 20
2.1012212839
 10
0.5173987207
 20
2.0975263319
  0
LWPOLYLINE
  5
67
330
1F
100
AcDbEntity
  8
0
  6
Continuous
 62
     7
100
AcDbPolyline
 90
        9
 70
   128
 43
0.0
 10
-0.0009426335
 20
1.6238300229
 10
-0.0041461608
 20
1.6235033727
 10
-0.0072265783
 20
1.622535975
 10
-0.0100655073
 20
1.6209650063
 10
-0.0125538494
 20
1.6188508382
 10
-0.014595979
 20
1.6162747169
 10
-0.0161134182
 20
1.6133356413
 10
-0.0170478526
 20
1.6101465584
 10
-0.0173633725
 20
1.6068300229
  0
LWPOLYLINE
  5
68
330
1F
100
AcDbEntity
  8
0
  6
Continuous
 62
     7
100
AcDbPolyline
 90
        9
 70
   128
 43
0.0
 10
0.0307421947
 20
1.6203332822
 10
0.0292563308
 20
1.6211388938
 10
0.0277235195
 20
1.6218439582
 10
0.0261501007
 20
1.6224455592
 10
0.0245425826
 20
1.6229412083
 10
0.0229076141
 20
1.6233288555
 10
0.021251958
 20
1.6236068973
 10
0.0195824623
 20
1.6237741838
 10
0.0179060325
 20
1.6238300229
  0
LWPOLYLINE
  5
69
330
1F
100
AcDbEntity
  8
0
  6
Continuous
 62
     7
100
AcDbPolyline
 90
        9
 70
   128
 43
0.0
 10
0.0380909072
 20
1.6160316745
 10
0.0390264511
 20
1.6155244376
 10
0.0399915545
 20
1.6150805081
 10
0.0409822256
 20
1.6147017224
 10
0.0419943666
 20
1.614389647
 10
0.0430237912
 20
1.6141455728
 10
0.0440662414
 20
1.6139705094
 10
0.0451174053
 20
1.6138651809
 10
0.0461729352
 20
1.6138300229
  0
LWPOLYLINE
  5
6A
330
1F
100
AcDbEntity
  8
0
  6
Continuous
 62
     7
100
AcDbPolyline
 90
        9
 70
   128
 43
0.0
 10
-0.0009426335
 20
1.5638300229
 10
-0.0041461608
 20
1.5641566732
 10
-0.0072265783
 20
1.5651240709
 10
-0.0100655073
 20
1.5666950395
 10
-0.0125538494
 20
1.5688092077
 10
-0.014595979
 20
1.571385329
 10
-0.0161134182
 20
1.5743244046
 10
-0.0170478526
 20
1.5775134875
 10
-0.0173633725
 20
1.5808300229
  0
LWPOLYLINE
  5
6B
330
1F
100
AcDbEntity
  8
0
  6
Continuous
 62
     7
100
AcDbPolyline
 90
        9
 70
   128
 43
0.0
 10
0.0307421947
 20
1.5673267637
 10
0.0292563308
 20
1.5665211521
 10
0.0277235195
 20
1.5658160877
 10
0.0261501007
 20
1.5652144867
 10
0.0245425826
 20
1.5647188376
 10
0.0229076141
 20
1.5643311904
 10
0.021251958
 20
1.5640531485
 10
0.0195824623
 20
1.5638858621
 10
0.0179060325
 20
1.5638300229
  0
LWPOLYLINE
  5
6C
330
1F
100
AcDbEntity
  8
0
  6
Continuous
 62
     7
100
AcDbPolyline
 90
        9
 70
   128
 43
0.0
 10
0.0380909072
 20
1.5716283714
 10
0.0390264511
 20
1.5721356083
 10
0.0399915545
 20
1.5725795377
 10
0.0409822256
 20
1.5729583235
 10
0.0419943666
 20
1.5732703989
 10
0.0430237912
 20
1.5735144731
 10
0.0440662414
 20
1.5736895364
 10
0.0451174053
 20
1.573794865
 10
0.0461729352
 20
1.5738300229
  0
LWPOLYLINE
  5
6D
330
1F
100
AcDbEntity
  8
0
  6
Continuous
 62
     7
100
AcDbPolyline
 90
        9
 70
   128
 43
0.0
 10
0.0768302921
 20
1.7144239309
 10
0.0736267649
 20
1.7140972807
 10
0.0705463473
 20
1.713129883
 10
0.0677074183
 20
1.7115589144
 10
0.0652190762
 20
1.7094447462
 10
0.0631769466
 20
1.7068686249
 10
0.0616595074
 20
1.7039295493
 10
0.060725073
 20
1.7007404664
 10
0.0604095531
 20
1.6974239309
  0
LWPOLYLINE
  5
6E
330
1F
100
AcDbEntity
  8
0
  6
Continuous
 62
     7
100
AcDbPolyline
 90
        9
 70
   128
 43
0.0
 10
0.0875043145
 20
1.7144239309
 10
0.0899282054
 20
1.7143070656
 10
0.0923311134
 20
1.7139574813
 10
0.0946922372
 20
1.7133782042
 10
0.0969911375
 20
1.7125742489
 10
0.0992079132
 20
1.7115525751
 10
0.1013233745
 20
1.7103220271
 10
0.1033192085
 20
1.7088932573
 10
0.1051781378
 20
1.7072786342
  0
LWPOLYLINE
  5
6F
330
1F
100
AcDbEntity
  8
0
  6
Continuous
 62
     7
100
AcDbPolyline
 90
        9
 70
   128
 43
0.0
 10
0.1166790432
 20
1.7024239309
 10
0.1151528897
 20
1.7024975128
 10
0.1136399476
 20
1.7027176215
 10
0.1121533141
 20
1.7030823515
 10
0.1107058584
 20
1.7035885455
 10
0.1093101107
 20
1.7042318216
 10
0.1079781536
 20
1.7050066111
 10
0.1067215174
 20
1.7059062069
 10
0.1055510804
 20
1.7069228215
  0
LWPOLYLINE
  5
70
330
1F
100
AcDbEntity
  8
0
  6
Continuous
 62
     7
100
AcDbPolyline
 90
        9
 70
   128
 43
0.0
 10
0.1166790432
 20
1.6664239309
 10
0.1151528897
 20
1.6663503491
 10
0.1136399476
 20
1.6661302404
 10
0.1121533141
 20
1.6657655104
 10
0.1107058584
 20
1.6652593163
 10
0.1093101107
 20
1.6646160402
 10
0.1079781536
 20
1.6638412508
 10
0.1067215174
 20
1.662941655
 10
0.1055510804
 20
1.6619250404
  0
LWPOLYLINE
  5
71
330
1F
100
AcDbEntity
  8
0
  6
Continuous
 62
     7
100
AcDbPolyline
 90
        9
 70
   128
 43
0.0
 10
0.0875043145
 20
1.6544239309
 10
0.0899282054
 20
1.6545407963
 10
0.0923311134
 20
1.6548903806
 10
0.0946922372
 20
1.6554696577
 10
0.0969911375
 20
1.656273613
 10
0.0992079132
 20
1.6572952867
 10
0.1013233745
 20
1.6585258348
 10
0.1033192085
 20
1.6599546045
 10
0.1051781378
 20
1.6615692276
  0
LWPOLYLINE
  5
72
330
1F
100
AcDbEntity
  8
0
  6
Continuous
 62
     7
100
AcDbPolyline
 90
        9
 70
   128
 43
0.0
 10
0.0768302921
 20
1.6544239309
 10
0.0736267649
 20
1.6547505812
 10
0.0705463473
 20
1.6557179789
 10
0.0677074183
 20
1.6572889475
 10
0.0652190762
 20
1.6594031157
 10
0.0631769466
 20
1.661979237
 10
0.0616595074
 20
1.6649183126
 10
0.060725073
 20
1.6681073955
 10
0.0604095531
 20
1.6714239309
  0
ELLIPSE
  5
73
330
1F
100
AcDbEntity
  8
0
  6
Continuous
 62
     7
100
AcDbEllipse
 10
1.1040765118
 20
1.5938300229
 30
0.0
 11
0.03767110722527356
 21
0.0
 31
0.0
210
0.0
220
0.0
230
1.0
 40
0.5309108617
 41
4.712388980384697
 42
7.853981633974483
  0
ELLIPSE
  5
74
330
1F
100
AcDbEntity
  8
0
  6
Continuous
 62
     7
100
AcDbEllipse
 10
1.0408242668
 20
1.6844239309
 30
0.0
 11
0.03863703305156285
 21
0.0
 31
0.0
210
0.0
220
0.0
230
1.0
 40
0.4529333289
 41
4.712388980384702
 42
7.853981633974483
  0
LINE
  5
75
330
1F
100
AcDbEntity
  8
0
  6
CENTERX2
 62
     7
100
AcDbLine
 10
0.4350552949
 20
1.8117121102
 30
0.0
 11
0.4350552949
 21
1.8217121102
 31
0.0
  0
LINE
  5
76
330
1F
100
AcDbEntity
  8
0
  6
CENTERX2
 62
     7
100
AcDbLine
 10
0.6378997184
 20
1.8117121102
 30
0.0
 11
0.6378997184
 21
1.8217121102
 31
0.0
  0
LINE
  5
77
330
1F
100
AcDbEntity
  8
0
  6
CENTERX2
 62
     7
100
AcDbLine
 10
-0.0093027863
 20
2.3942764594
 30
0.0
 11
0.5219564181
 21
2.3942764594
 31
0.0
  0
LINE
  5
78
330
1F
100
AcDbEntity
  8
0
  6
CENTERX2
 62
     7
100
AcDbLine
 10
-0.0093027863
 20
2.3942764594
 30
0.0
 11
-0.0093027863
 21
2.113866598
 31
0.0
  0
LINE
  5
79
330
1F
100
AcDbEntity
  8
0
  6
Continuous
 62
     7
100
AcDbLine
 10
0.2871148308
 20
1.8442764594
 30
0.0
 11
0.2255388011
 21
1.8442764594
 31
0.0
  0
LINE
  5
7A
330
1F
100
AcDbEntity
  8
0
  6
Continuous
 62
     7
100
AcDbLine
 10
0.5219564181
 20
2.3942764594
 30
0.0
 11
-0.0093027863
 21
2.3942764594
 31
0.0
  0
LINE
  5
7B
330
1F
100
AcDbEntity
  8
0
  6
Continuous
 62
     7
100
AcDbLine
 10
-0.0093027863
 20
2.3942764594
 30
0.0
 11
-0.0093027863
 21
2.1278814157
 31
0.0
  0
LINE
  5
7C
330
1F
100
AcDbEntity
  8
0
  6
Continuous
 62
     7
100
AcDbLine
 10
0.4350552949
 20
1.8217121102
 30
0.0
 11
0.4761071425
 21
1.8442121102
 31
0.0
  0
LINE
  5
7D
330
1F
100
AcDbEntity
  8
0
  6
Continuous
 62
     7
100
AcDbLine
 10
0.5219564181
 20
2.3942764594
 30
0.0
 11
0.5219564181
 21
2.1278814157
 31
0.0
  0
LINE
  5
7E
330
1F
100
AcDbEntity
  8
0
  6
Continuous
 62
     7
100
AcDbLine
 10
0.4761071425
 20
1.8442121102
 30
0.0
 11
0.5968478708
 21
1.8442121102
 31
0.0
  0
LINE
  5
7F
330
1F
100
AcDbEntity
  8
0
  6
Continuous
 62
     7
100
AcDbLine
 10
0.6378997184
 20
1.8217121102
 30
0.0
 11
0.5968478708
 21
1.8442121102
 31
0.0
  0
LINE
  5
80
330
1F
100
AcDbEntity
  8
0
  6
CENTERX2
 62
     7
100
AcDbLine
 10
0.6378997184
 20
1.8167121102
 30
0.0
 11
0.6378997184
 21
1.8217121102
 31
0.0
  0
LINE
  5
81
330
1F
100
AcDbEntity
  8
0
  6
Continuous
 62
     7
100
AcDbLine
 10
0.6378997184
 20
1.8117121102
 30
0.0
 11
0.5968478708
 21
1.7892121102
 31
0.0
  0
LINE
  5
82
330
1F
100
AcDbEntity
  8
0
  6
Continuous
 62
     7
100
AcDbLine
 10
0.4761071425
 20
1.7892121102
 30
0.0
 11
0.5968478708
 21
1.7892121102
 31
0.0
  0
LINE
  5
83
330
1F
100
AcDbEntity
  8
0
  6
Continuous
 62
     7
100
AcDbLine
 10
0.4350552949
 20
1.8117121102
 30
0.0
 11
0.4761071425
 21
1.7892121102
 31
0.0
  0
LINE
  5
84
330
1F
100
AcDbEntity
  8
0
  6
Continuous
 62
     7
100
AcDbLine
 10
0.4350552949
 20
1.8217121102
 30
0.0
 11
0.4350552949
 21
1.8117121102
 31
0.0
  0
LINE
  5
85
330
1F
100
AcDbEntity
  8
0
  6
Continuous
 62
     7
100
AcDbLine
 10
0.6378997184
 20
1.8217121102
 30
0.0
 11
0.6378997184
 21
1.8117121102
 31
0.0
  0
LINE
  5
86
330
1F
100
AcDbEntity
  8
0
  6
CENTERX2
 62
     7
100
AcDbLine
 10
0.2386069714
 20
1.6238300229
 30
0.0
 11
0.2598573396
 21
1.6238300229
 31
0.0
  0
LINE
  5
87
330
1F
100
AcDbEntity
  8
0
  6
Continuous
 62
     7
100
AcDbLine
 10
-0.0173633725
 20
1.6068300229
 30
0.0
 11
-0.0173633725
 21
1.5808300229
 31
0.0
  0
LINE
  5
88
330
1F
100
AcDbEntity
  8
0
  6
Continuous
 62
     7
100
AcDbLine
 10
-0.0009426335
 20
1.6238300229
 30
0.0
 11
0.0179060325
 21
1.6238300229
 31
0.0
  0
LINE
  5
89
330
1F
100
AcDbEntity
  8
0
  6
Continuous
 62
     7
100
AcDbLine
 10
0.0461729352
 20
1.6138300229
 30
0.0
 11
0.1788078778
 21
1.6138300229
 31
0.0
  0
LINE
  5
8A
330
1F
100
AcDbEntity
  8
0
  6
Continuous
 62
     7
100
AcDbLine
 10
0.1788078778
 20
1.6138300229
 30
0.0
 11
0.2386069714
 21
1.6138300229
 31
0.0
  0
LINE
  5
8B
330
1F
100
AcDbEntity
  8
0
  6
Continuous
 62
     7
100
AcDbLine
 10
0.2386069714
 20
1.6138300229
 30
0.0
 11
0.2386069714
 21
1.6238300229
 31
0.0
  0
LINE
  5
8C
330
1F
100
AcDbEntity
  8
0
  6
Continuous
 62
     7
100
AcDbLine
 10
0.2386069714
 20
1.6238300229
 30
0.0
 11
0.2598573396
 21
1.6238300229
 31
0.0
  0
LINE
  5
8D
330
1F
100
AcDbEntity
  8
0
  6
Continuous
 62
     7
100
AcDbLine
 10
0.0307421947
 20
1.6203332822
 30
0.0
 11
0.0380909072
 21
1.6160316745
 31
0.0
  0
LINE
  5
8E
330
1F
100
AcDbEntity
  8
0
  6
Continuous
 62
     7
100
AcDbLine
 10
0.2598573396
 20
1.6238300229
 30
0.0
 11
1.1040765118
 21
1.6138300229
 31
0.0
  0
LINE
  5
8F
330
1F
100
AcDbEntity
  8
0
  6
Continuous
 62
     7
100
AcDbLine
 10
-0.0009426335
 20
1.5638300229
 30
0.0
 11
0.0179060325
 21
1.5638300229
 31
0.0
  0
LINE
  5
90
330
1F
100
AcDbEntity
  8
0
  6
Continuous
 62
     7
100
AcDbLine
 10
0.0307421947
 20
1.5673267637
 30
0.0
 11
0.0380909072
 21
1.5716283714
 31
0.0
  0
LINE
  5
91
330
1F
100
AcDbEntity
  8
0
  6
Continuous
 62
     7
100
AcDbLine
 10
0.0461729352
 20
1.5738300229
 30
0.0
 11
0.1788078778
 21
1.5738300229
 31
0.0
  0
LINE
  5
92
330
1F
100
AcDbEntity
  8
0
  6
Continuous
 62
     7
100
AcDbLine
 10
0.1788078778
 20
1.5738300229
 30
0.0
 11
0.2386069714
 21
1.5738300229
 31
0.0
  0
LINE
  5
93
330
1F
100
AcDbEntity
  8
0
  6
Continuous
 62
     7
100
AcDbLine
 10
0.2386069714
 20
1.5738300229
 30
0.0
 11
0.2386069714
 21
1.5638300229
 31
0.0
  0
LINE
  5
94
330
1F
100
AcDbEntity
  8
0
  6
Continuous
 62
     7
100
AcDbLine
 10
0.2386069714
 20
1.5638300229
 30
0.0
 11
0.2598573396
 21
1.5638300229
 31
0.0
  0
LINE
  5
95
330
1F
100
AcDbEntity
  8
0
  6
Continuous
 62
     7
100
AcDbLine
 10
0.2598573396
 20
1.5638300229
 30
0.0
 11
1.1040765118
 21
1.5738300229
 31
0.0
  0
LINE
  5
96
330
1F
100
AcDbEntity
  8
0
  6
CENTERX2
 62
     7
100
AcDbLine
 10
0.2391058309
 20
1.7144239309
 30
0.0
 11
0.2603561991
 21
1.7144239309
 31
0.0
  0
LINE
  5
97
330
1F
100
AcDbEntity
  8
0
  6
Continuous
 62
     7
100
AcDbLine
 10
0.0604095531
 20
1.6714239309
 30
0.0
 11
0.0604095531
 21
1.6974239309
 31
0.0
  0
LINE
  5
98
330
1F
100
AcDbEntity
  8
0
  6
Continuous
 62
     7
100
AcDbLine
 10
0.2603561991
 20
1.6544239309
 30
0.0
 11
1.0408242668
 21
1.6669239309
 31
0.0
  0
LINE
  5
99
330
1F
100
AcDbEntity
  8
0
  6
Continuous
 62
     7
100
AcDbLine
 10
0.0768302921
 20
1.7144239309
 30
0.0
 11
0.0875043145
 21
1.7144239309
 31
0.0
  0
LINE
  5
9A
330
1F
100
AcDbEntity
  8
0
  6
Continuous
 62
     7
100
AcDbLine
 10
0.1051781378
 20
1.7072786342
 30
0.0
 11
0.1055510804
 21
1.7069228215
 31
0.0
  0
LINE
  5
9B
330
1F
100
AcDbEntity
  8
0
  6
Continuous
 62
     7
100
AcDbLine
 10
0.1166790432
 20
1.7024239309
 30
0.0
 11
0.2391058309
 21
1.7024239309
 31
0.0
  0
LINE
  5
9C
330
1F
100
AcDbEntity
  8
0
  6
Continuous
 62
     7
100
AcDbLine
 10
0.2391058309
 20
1.7024239309
 30
0.0
 11
0.2391058309
 21
1.7144239309
 31
0.0
  0
LINE
  5
9D
330
1F
100
AcDbEntity
  8
0
  6
Continuous
 62
     7
100
AcDbLine
 10
0.2391058309
 20
1.7144239309
 30
0.0
 11
0.2603561991
 21
1.7144239309
 31
0.0
  0
LINE
  5
9E
330
1F
100
AcDbEntity
  8
0
  6
Continuous
 62
     7
100
AcDbLine
 10
0.2603561991
 20
1.7144239309
 30
0.0
 11
1.0408242668
 21
1.7019239309
 31
0.0
  0
LINE
  5
9F
330
1F
100
AcDbEntity
  8
0
  6
Continuous
 62
     7
100
AcDbLine
 10
0.2391058309
 20
1.6544239309
 30
0.0
 11
0.2603561991
 21
1.6544239309
 31
0.0
  0
LINE
  5
A0
330
1F
100
AcDbEntity
  8
0
  6
Continuous
 62
     7
100
AcDbLine
 10
0.2391058309
 20
1.6664239309
 30
0.0
 11
0.2391058309
 21
1.6544239309
 31
0.0
  0
LINE
  5
A1
330
1F
100
AcDbEntity
  8
0
  6
Continuous
 62
     7
100
AcDbLine
 10
0.1166790432
 20
1.6664239309
 30
0.0
 11
0.2391058309
 21
1.6664239309
 31
0.0
  0
LINE
  5
A2
330
1F
100
AcDbEntity
  8
0
  6
Continuous
 62
     7
100
AcDbLine
 10
0.1051781378
 20
1.6615692276
 30
0.0
 11
0.1055510804
 21
1.6619250404
 31
0.0
  0
LINE
  5
A3
330
1F
100
AcDbEntity
  8
0
  6
Continuous
 62
     7
100
AcDbLine
 10
0.0768302921
 20
1.6544239309
 30
0.0
 11
0.0875043145
 21
1.6544239309
 31
0.0
  0
LINE
  5
A4
330
1F
100
AcDbEntity
  8
0
  6
Continuous
 62
     7
100
AcDbLine
 10
0.038931737
 20
1.6155394903
 30
0.0
 11
0.0426929596
 21
1.6133378388
 31
0.0
  0
LINE
  5
A5
330
1F
100
AcDbEntity
  8
0
  6
Continuous
 62
     7
100
AcDbLine
 10
0.0452070094
 20
1.6138300229
 30
0.0
 11
0.0408862039
 21
1.6138300229
 31
0.0
  0
SPLINE
  5
A6
330
1F
100
AcDbEntity
  8
0
  6
Continuous
 62
     7
100
AcDbSpline
210
0.0
220
0.0
230
1.0
 70
     8
 71
     3
 72
    18
 73
    14
 74
     0
 42
0.00000001
 43
0.00000001
 40
0.0
 40
0.0
 40
0.0
 40
0.0
 40
0.0961182424724676
 40
0.1901327914867584
 40
0.2828558651271605
 40
0.374966393764551
 40
0.4670036032696793
 40
0.5593667908351155
 40
0.6468093877691431
 40
0.7343917716233389
 40
0.8221434608847609
 40
0.9104286122711491
 40
1.0
 40
1.0
 40
1.0
 40
1.0
 10
-0.0047450883924527
 20
2.097526331862123
 30
0.0
 10
0.0063613454647515
 20
2.066214661459442
 30
0.0
 10
0.0197214501637635
 20
2.036665513829655
 30
0.0
 10
0.0351598256921037
 20
2.008737751091241
 30
0.0
 10
0.0525010724670913
 20
1.982290235362683
 30
0.0
 10
0.0715697909060453
 20
1.95718182876246
 30
0.0
 10
0.0921918421252156
 20
1.933273842585546
 30
0.0
 10
0.1130041786684835
 20
1.911905881203805
 30
0.0
 10
0.1352770774211023
 20
1.892104630564285
 30
0.0
 10
0.1591599887793822
 20
1.874327741879233
 30
0.0
 10
0.1848023631396332
 20
1.859032866360895
 30
0.0
 10
0.2123536508981655
 20
1.846677655221518
 30
0.0
 10
0.2030630921114881
 20
1.850563875817344
 30
0.0
 10
0.2123536508981655
 20
1.846677655221518
 30
0.0
  0
SPLINE
  5
A7
330
1F
100
AcDbEntity
  8
0
  6
Continuous
 62
     7
100
AcDbSpline
210
0.0
220
0.0
230
1.0
 70
     8
 71
     3
 72
    18
 73
    14
 74
     0
 42
0.00000001
 43
0.00000001
 40
0.0
 40
0.0
 40
0.0
 40
0.0
 40
0.0961179573824555
 40
0.1901325360495274
 40
0.2828556389353723
 40
0.3749661966250051
 40
0.467003435159251
 40
0.5593666518566197
 40
0.6468092763705942
 40
0.7343916878488267
 40
0.8221434047876857
 40
0.910428584019768
 40
1.0
 40
1.0
 40
1.0
 40
1.0
 10
0.5173984135167893
 20
2.097526331862123
 30
0.0
 10
0.5062922863734176
 20
2.066214661459441
 30
0.0
 10
0.4929321816744057
 20
2.036665513829655
 30
0.0
 10
0.4774938061460655
 20
2.008737751091241
 30
0.0
 10
0.460152559371078
 20
1.982290235362683
 30
0.0
 10
0.4410838409321238
 20
1.95718182876246
 30
0.0
 10
0.4204617897129536
 20
1.933273842585545
 30
0.0
 10
0.3996494531696856
 20
1.911905881203805
 30
0.0
 10
0.3773765544170669
 20
1.892104630564285
 30
0.0
 10
0.3534936430587868
 20
1.874327741879233
 30
0.0
 10
0.3278512686985358
 20
1.859032866360895
 30
0.0
 10
0.3002999809400037
 20
1.846677655221518
 30
0.0
 10
0.3095905397265358
 20
1.850563875817399
 30
0.0
 10
0.3002999809400037
 20
1.846677655221518
 30
0.0
  0
SPLINE
  5
A8
330
1F
100
AcDbEntity
  8
0
  6
Continuous
 62
     7
100
AcDbSpline
210
0.0
220
0.0
230
1.0
 70
     8
 71
     3
 72
    21
 73
    17
 74
     0
 42
0.00000001
 43
0.00000001
 40
0.0
 40
0.0
 40
0.0
 40
0.0
 40
0.0728409592378493
 40
0.143824306594114
 40
0.2132657348575023
 40
0.2815023427756085
 40
0.3488893126186707
 40
0.4157953593756052
 40
0.4825971619276576
 40
0.5496731553926547
 40
0.6206429900799381
 40
0.6927412508403518
 40
0.7663660119018948
 40
0.8418912139580178
 40
0.9196633896857396
 40
1.0
 40
1.0
 40
1.0
 40
1.0
 10
0.6217817724778429
 20
2.285655446746263
 30
0.0
 10
0.6200203891582634
 20
2.240529276295707
 30
0.0
 10
0.6210687823982167
 20
2.196531423041502
 30
0.0
 10
0.6249269771835049
 20
2.153661886983647
 30
0.0
 10
0.6315949735141281
 20
2.11192066812214
 30
0.0
 10
0.6410727713900866
 20
2.071307766456984
 30
0.0
 10
0.6533603708113803
 20
2.031823181988178
 30
0.0
 10
0.6684577717780094
 20
1.993466914715721
 30
0.0
 10
0.6863649742899735
 20
1.956238964639613
 30
0.0
 10
0.7081385881028327
 20
1.918448445589074
 30
0.0
 10
0.7329959750402777
 20
1.881896261057884
 30
0.0
 10
0.7609371351023081
 20
1.846582411046044
 30
0.0
 10
0.7919620682889242
 20
1.812506895553554
 30
0.0
 10
0.8260707746001257
 20
1.779669714580413
 30
0.0
 10
0.8632632540359128
 20
1.748070868126623
 30
0.0
 10
0.8507301111746869
 20
1.758438429307034
 30
0.0
 10
0.8632632540359128
 20
1.748070868126623
 30
0.0
  0
SPLINE
  5
A9
330
1F
100
AcDbEntity
  8
0
  6
Continuous
 62
     7
100
AcDbSpline
210
0.0
220
0.0
230
1.0
 70
     8
 71
     3
 72
    14
 73
    10
 74
     0
 42
0.00000001
 43
0.00000001
 40
0.0
 40
0.0
 40
0.0
 40
0.0
 40
0.1425975969848781
 40
0.2823939643650282
 40
0.4205060846041941
 40
0.558091870537027
 40
0.7029358304006981
 40
0.8498142317629551
 40
1.0
 40
1.0
 40
1.0
 40
1.0
 10
0.6217817724778429
 20
2.285655446746263
 30
0.0
 10
0.6595843339670715
 20
2.290656617942162
 30
0.0
 10
0.6960861296294201
 20
2.298905613149917
 30
0.0
 10
0.7312871844506915
 20
2.310402432369526
 30
0.0
 10
0.7651874984308857
 20
2.325147075600989
 30
0.0
 10
0.7993069874127912
 20
2.34407733848204
 30
0.0
 10
0.8319989059478001
 20
2.366572106627801
 30
0.0
 10
0.8632632540359128
 20
2.392631380038274
 30
0.0
 10
0.852998594193217
 20
2.383732598946975
 30
0.0
 10
0.8632632540359128
 20
2.392631380038274
 30
0.0
  0
SPLINE
  5
AA
330
1F
100
AcDbEntity
  8
0
  6
Continuous
 62
     7
100
AcDbSpline
210
0.0
220
0.0
230
1.0
 70
     8
 71
     3
 72
    21
 73
    17
 74
     0
 42
0.00000001
 43
0.00000001
 40
0.0
 40
0.0
 40
0.0
 40
0.0
 40
0.0728409623614832
 40
0.1438243094786023
 40
0.2132657375080405
 40
0.2815023451962543
 40
0.3488893148122874
 40
0.4157953613438136
 40
0.4825971636708075
 40
0.5496731569098232
 40
0.6206429913580072
 40
0.6927412518755187
 40
0.7663660126890167
 40
0.8418912144906927
 40
0.9196633899563966
 40
1.0
 40
1.0
 40
1.0
 40
1.0
 10
1.104744685622377
 20
2.285655446746263
 30
0.0
 10
1.106506118913562
 20
2.240529276295707
 30
0.0
 10
1.105457725673609
 20
2.196531423041502
 30
0.0
 10
1.101599530888321
 20
2.153661886983646
 30
0.0
 10
1.094931534557697
 20
2.11192066812214
 30
0.0
 10
1.085453736681739
 20
2.071307766456984
 30
0.0
 10
1.073166137260445
 20
2.031823181988177
 30
0.0
 10
1.058068736293816
 20
1.993466914715721
 30
0.0
 10
1.040161533781852
 20
1.956238964639613
 30
0.0
 10
1.018387919968992
 20
1.918448445589073
 30
0.0
 10
0.9935305330315478
 20
1.881896261057884
 30
0.0
 10
0.9655893729695173
 20
1.846582411046044
 30
0.0
 10
0.9345644397829013
 20
1.812506895553553
 30
0.0
 10
0.9004557334716998
 20
1.779669714580413
 30
0.0
 10
0.8632632540359128
 20
1.748070868126623
 30
0.0
 10
0.8757963968971392
 20
1.758438429307034
 30
0.0
 10
0.8632632540359128
 20
1.748070868126623
 30
0.0
  0
SPLINE
  5
AB
330
1F
100
AcDbEntity
  8
0
  6
Continuous
 62
     7
100
AcDbSpline
210
0.0
220
0.0
230
1.0
 70
     8
 71
     3
 72
    14
 73
    10
 74
     0
 42
0.00000001
 43
0.00000001
 40
0.0
 40
0.0
 40
0.0
 40
0.0
 40
0.1425974379602926
 40
0.2823938312688271
 40
0.420505977123997
 40
0.5580917885752126
 40
0.702935775303458
 40
0.8498142039076216
 40
1.0
 40
1.0
 40
1.0
 40
1.0
 10
1.104744685622377
 20
2.285655446746263
 30
0.0
 10
1.066942174104754
 20
2.290656617942163
 30
0.0
 10
1.030440378442406
 20
2.298905613149917
 30
0.0
 10
0.995239323621134
 20
2.310402432369526
 30
0.0
 10
0.9613390096409399
 20
2.325147075600989
 30
0.0
 10
0.9272195206590342
 20
2.34407733848204
 30
0.0
 10
0.8945276021240255
 20
2.366572106627801
 30
0.0
 10
0.8632632540359128
 20
2.392631380038274
 30
0.0
 10
0.8735279138785436
 20
2.383732598946405
 30
0.0
 10
0.8632632540359128
 20
2.392631380038274
 30
0.0
  0
MTEXT
  5
AD
330
1F
100
AcDbEntity
  8
0
  6
Continuous
 62
     7
100
AcDbMText
 10
-0.0173633725
 20
1.5628104565
 30
0.0
 40
0.00483362
 41
0.0
 71
     1
 72
     1
  1
Producto SOLIDWORKS Educational.
  7
SLDTEXTSTYLE0
 73
     1
 44
1.0
  0
MTEXT
  5
AE
330
1F
100
AcDbEntity
  8
0
  6
Continuous
 62
     7
100
AcDbMText
 10
-0.0173633725
 20
1.5555600265
 30
0.0
 40
0.00483362
 41
0.0
 71
     1
 72
     1
  1
Solo para uso en la enseñanza.
  7
SLDTEXTSTYLE0
 73
     1
 44
1.0
  0
ENDSEC
  0
SECTION
  2
OBJECTS
  0
DICTIONARY
  5
C
330
0
100
AcDbDictionary
281
     1
  3
ACAD_GROUP
350
D
  3
ACAD_LAYOUT
350
1A
  3
ACAD_MLINESTYLE
350
17
  3
ACAD_PLOTSETTINGS
350
19
  3
ACAD_PLOTSTYLENAME
350
E
  3
ACAD_SCALELIST
350
47
  3
DWGPROPS
350
AF
  0
DICTIONARY
  5
D
102
{ACAD_REACTORS
330
C
102
}
330
C
100
AcDbDictionary
281
     1
  0
DICTIONARY
  5
1A
102
{ACAD_REACTORS
330
C
102
}
330
C
100
AcDbDictionary
281
     1
  3
Layout1
350
1E
  3
Layout2
350
26
  3
Model
350
22
  0
DICTIONARY
  5
17
102
{ACAD_REACTORS
330
C
102
}
330
C
100
AcDbDictionary
281
     1
  3
Standard
350
18
  0
DICTIONARY
  5
19
102
{ACAD_REACTORS
330
C
102
}
330
C
100
AcDbDictionary
281
     1
  0
ACDBDICTIONARYWDFLT
  5
E
102
{ACAD_REACTORS
330
C
102
}
330
C
100
AcDbDictionary
281
     1
  3
Normal
350
F
100
AcDbDictionaryWithDefault
340
F
  0
DICTIONARY
  5
47
102
{ACAD_REACTORS
330
C
102
}
330
C
100
AcDbDictionary
281
     1
  3
A0
350
48
  3
A1
350
49
  3
A2
350
4A
  3
A3
350
4B
  3
A4
350
4C
  3
A5
350
4D
  3
A6
350
4E
  3
A7
350
4F
  3
A8
350
50
  3
A9
350
51
  3
B0
350
52
  3
B1
350
53
  3
B2
350
54
  3
B3
350
55
  3
B4
350
56
  3
B5
350
57
  3
B6
350
58
  0
XRECORD
  5
AF
102
{ACAD_REACTORS
330
C
102
}
330
C
100
AcDbXrecord
280
     1
  1
DWGPROPS COOKIE
  2

  3

  4

  6

  7

  8
aleja
  9

300
=
301
=
302
=
303
=
304
=
305
=
306
=
307
=
308
=
309
=
 40
0.0
 41
2461019.336515162
 42
2461019.336612419
  1

 90
        0
  0
LAYOUT
  5
1E
102
{ACAD_REACTORS
330
1A
102
}
330
1A
100
AcDbPlotSettings
  1

  2
none_device
  4

  6

 40
0.0
 41
0.0
 42
0.0
 43
0.0
 44
0.0
 45
0.0
 46
0.0
 47
0.0
 48
0.0
 49
0.0
140
0.0
141
0.0
142
1.0
143
1.0
 70
   688
 72
     1
 73
     0
 74
     5
  7

 75
    16
147
1.0
148
0.0
149
0.0
100
AcDbLayout
  1
Layout1
 70
     1
 71
     1
 10
0.0
 20
0.0
 11
420.0
 21
297.0
 12
0.0
 22
0.0
 32
0.0
 14
1.0000000000E+20
 24
1.0000000000E+20
 34
1.0000000000E+20
 15
-1.0000000000E+20
 25
-1.0000000000E+20
 35
-1.0000000000E+20
146
0.0
 13
0.0
 23
0.0
 33
0.0
 16
1.0
 26
0.0
 36
0.0
 17
0.0
 27
1.0
 37
0.0
 76
     0
330
1B
  0
LAYOUT
  5
26
102
{ACAD_REACTORS
330
1A
102
}
330
1A
100
AcDbPlotSettings
  1

  2
none_device
  4

  6

 40
0.0
 41
0.0
 42
0.0
 43
0.0
 44
0.0
 45
0.0
 46
0.0
 47
0.0
 48
0.0
 49
0.0
140
0.0
141
0.0
142
1.0
143
1.0
 70
   688
 72
     1
 73
     0
 74
     5
  7

 75
    16
147
1.0
148
0.0
149
0.0
100
AcDbLayout
  1
Layout2
 70
     1
 71
     2
 10
0.0
 20
0.0
 11
0.0
 21
0.0
 12
0.0
 22
0.0
 32
0.0
 14
0.0
 24
0.0
 34
0.0
 15
0.0
 25
0.0
 35
0.0
146
0.0
 13
0.0
 23
0.0
 33
0.0
 16
1.0
 26
0.0
 36
0.0
 17
0.0
 27
1.0
 37
0.0
 76
     0
330
23
  0
LAYOUT
  5
22
102
{ACAD_REACTORS
330
1A
102
}
330
1A
100
AcDbPlotSettings
  1

  2
none_device
  4
ANSI_A_(11.00_x_8.50_Inches)
  6

 40
6.35
 41
19.05
 42
6.35000508
 43
19.05000254
 44
279.4
 45
215.9
 46
-0.8094709379
 47
-383.3740154255
 48
0.0
 49
0.0
140
0.0
141
0.0
142
9.3951313372
143
1.0
 70
  1696
 72
     0
 73
     0
 74
     0
  7

 75
     0
147
0.0179189148
148
-1300.4909072572
149
0.0
100
AcDbLayout
  1
Model
 70
     1
 71
     0
 10
0.0
 20
0.0
 11
420.0
 21
297.0
 12
0.0
 22
0.0
 32
0.0
 14
-0.0173633725
 24
1.5638300229
 34
0.0
 15
1.141747619
 25
2.3942764594
 35
0.0
146
0.0
 13
0.0
 23
0.0
 33
0.0
 16
1.0
 26
0.0
 36
0.0
 17
0.0
 27
1.0
 37
0.0
 76
     0
330
1F
331
29
  0
MLINESTYLE
  5
18
102
{ACAD_REACTORS
330
17
102
}
330
17
100
AcDbMlineStyle
  2
Standard
 70
     0
  3

 62
   256
 51
90.0
 52
90.0
 71
     2
 49
0.5
 62
   256
  6
BYLAYER
 49
-0.5
 62
   256
  6
BYLAYER
  0
ACDBPLACEHOLDER
  5
F
102
{ACAD_REACTORS
330
E
102
}
330
E
  0
SCALE
  5
48
102
{ACAD_REACTORS
330
47
102
}
330
47
100
AcDbScale
 70
     0
300
1:1
140
1.0
141
1.0
290
     1
  0
SCALE
  5
49
102
{ACAD_REACTORS
330
47
102
}
330
47
100
AcDbScale
 70
     0
300
1:2
140
1.0
141
2.0
290
     0
  0
SCALE
  5
4A
102
{ACAD_REACTORS
330
47
102
}
330
47
100
AcDbScale
 70
     0
300
1:4
140
1.0
141
4.0
290
     0
  0
SCALE
  5
4B
102
{ACAD_REACTORS
330
47
102
}
330
47
100
AcDbScale
 70
     0
300
1:5
140
1.0
141
5.0
290
     0
  0
SCALE
  5
4C
102
{ACAD_REACTORS
330
47
102
}
330
47
100
AcDbScale
 70
     0
300
1:8
140
1.0
141
8.0
290
     0
  0
SCALE
  5
4D
102
{ACAD_REACTORS
330
47
102
}
330
47
100
AcDbScale
 70
     0
300
1:10
140
1.0
141
10.0
290
     0
  0
SCALE
  5
4E
102
{ACAD_REACTORS
330
47
102
}
330
47
100
AcDbScale
 70
     0
300
1:16
140
1.0
141
16.0
290
     0
  0
SCALE
  5
4F
102
{ACAD_REACTORS
330
47
102
}
330
47
100
AcDbScale
 70
     0
300
1:20
140
1.0
141
20.0
290
     0
  0
SCALE
  5
50
102
{ACAD_REACTORS
330
47
102
}
330
47
100
AcDbScale
 70
     0
300
1:30
140
1.0
141
30.0
290
     0
  0
SCALE
  5
51
102
{ACAD_REACTORS
330
47
102
}
330
47
100
AcDbScale
 70
     0
300
1:40
140
1.0
141
40.0
290
     0
  0
SCALE
  5
52
102
{ACAD_REACTORS
330
47
102
}
330
47
100
AcDbScale
 70
     0
300
1:50
140
1.0
141
50.0
290
     0
  0
SCALE
  5
53
102
{ACAD_REACTORS
330
47
102
}
330
47
100
AcDbScale
 70
     0
300
1:100
140
1.0
141
100.0
290
     0
  0
SCALE
  5
54
102
{ACAD_REACTORS
330
47
102
}
330
47
100
AcDbScale
 70
     0
300
2:1
140
2.0
141
1.0
290
     0
  0
SCALE
  5
55
102
{ACAD_REACTORS
330
47
102
}
330
47
100
AcDbScale
 70
     0
300
4:1
140
4.0
141
1.0
290
     0
  0
SCALE
  5
56
102
{ACAD_REACTORS
330
47
102
}
330
47
100
AcDbScale
 70
     0
300
8:1
140
8.0
141
1.0
290
     0
  0
SCALE
  5
57
102
{ACAD_REACTORS
330
47
102
}
330
47
100
AcDbScale
 70
     0
300
10:1
140
10.0
141
1.0
290
     0
  0
SCALE
  5
58
102
{ACAD_REACTORS
330
47
102
}
330
47
100
AcDbScale
 70
     0
300
100:1
140
100.0
141
1.0
290
     0
  0
ENDSEC
  0
EOF
